# xmcd CD database file
#
# Track frame offsets:
#	150
#	31753
#	61676
#	90127
#	121850
#	156565
#	181524
#	207269
#	243935
#	293179
#
# Disc length: 4238 seconds
#
# Revision: 0
# Processed by: cddbd v1.5PL3 Copyright (c) Steve Scherf et al.
# Submitted via: CDex 1.51
#
DISCID=74108c0a
DTITLE=James Asher -  Kali Thunder
DYEAR=2001
DGENRE=New Age
TTITLE0=Prayer Wheel
TTITLE1=Temple Gates
TTITLE2=Liquid Sky
TTITLE3=Assam
TTITLE4=Duskfire
TTITLE5=Red Desert
TTITLE6=Natarraj Express
TTITLE7=Temple Gates (Summit)
TTITLE8=The Astrologer's Seat
TTITLE9=Temple Gates(Jon Cross)
EXTD=YEAR: 2001
EXTT0=
EXTT1=
EXTT2=
EXTT3=
EXTT4=
EXTT5=
EXTT6=
EXTT7=
EXTT8=
EXTT9=
PLAYORDER=
